<?xml version="1.0" encoding="UTF-8" standalone="no"?>
<!DOCTYPE svg PUBLIC "-//W3C//DTD SVG 1.1//EN" "http://www.w3.org/Graphics/SVG/1.1/DTD/svg11.dtd">
<svg width="100%" height="100%" viewBox="0 0 667 667" version="1.1" xmlns="http://www.w3.org/2000/svg" xmlns:xlink="http://www.w3.org/1999/xlink" xml:space="preserve" xmlns:serif="http://www.serif.com/" style="fill-rule:evenodd;clip-rule:evenodd;stroke-linejoin:round;stroke-miterlimit:2;">
    <g transform="matrix(1.33333,0,0,1.33333,0,0)">
        <g id="Dice-6" serif:id="Dice 6" transform="matrix(1,0,0,1,-3772.51,-3085.19)">
            <g transform="matrix(1,0,0,1,-3.02627,-1.71268)">
                <path d="M4146.32,3239.76C4146.32,3226.71 4135.73,3216.12 4122.69,3216.12L3928.39,3216.12C3915.35,3216.12 3904.75,3226.71 3904.75,3239.76L3904.75,3434.05C3904.75,3447.1 3915.35,3457.69 3928.39,3457.69L4122.69,3457.69C4135.73,3457.69 4146.32,3447.1 4146.32,3434.05L4146.32,3239.76Z" style="fill:rgb(235,235,235);"/>
            </g>
            <g transform="matrix(1,0,0,1,199.914,87.9093)">
                <circle cx="3752.6" cy="3320.7" r="28.079" style="fill:rgb(0,163,255);"/>
            </g>
            <g transform="matrix(1,0,0,1,343.231,87.9093)">
                <circle cx="3752.6" cy="3320.7" r="28.079" style="fill:rgb(0,163,255);"/>
            </g>
            <g transform="matrix(1,0,0,1,343.231,-58.5927)">
                <circle cx="3752.6" cy="3320.7" r="28.079" style="fill:rgb(0,163,255);"/>
            </g>
            <g transform="matrix(1,0,0,1,199.914,-58.5927)">
                <circle cx="3752.6" cy="3320.7" r="28.079" style="fill:rgb(0,163,255);"/>
            </g>
            <g transform="matrix(1,0,0,1,199.914,14.4962)">
                <circle cx="3752.6" cy="3320.7" r="28.079" style="fill:rgb(0,163,255);"/>
            </g>
            <g transform="matrix(1,0,0,1,343.231,14.4962)">
                <circle cx="3752.6" cy="3320.7" r="28.079" style="fill:rgb(0,163,255);"/>
            </g>
        </g>
    </g>
</svg>
